<?xml version="1.0" encoding="utf-8"?>
<!-- Generator: Adobe Illustrator 17.0.0, SVG Export Plug-In . SVG Version: 6.00 Build 0)  -->
<!DOCTYPE svg PUBLIC "-//W3C//DTD SVG 1.1//EN" "http://www.w3.org/Graphics/SVG/1.1/DTD/svg11.dtd">
<svg version="1.1" id="Layer_1" xmlns="http://www.w3.org/2000/svg" xmlns:xlink="http://www.w3.org/1999/xlink" x="0px" y="0px"
	 width="81.928px" height="16px" viewBox="0 0 81.928 16" enable-background="new 0 0 81.928 16" xml:space="preserve">
<g>
	<g>
		<path fill="#FFFFFF" d="M7.498,7.361C6.641,6.778,5.541,6.324,4.266,6.349C2.832,6.377,1.79,6.92,1.79,8.12
			c0,0.987,0.675,1.462,2.108,1.574l1.098,0.141c1.967,0.31,3.392,1.124,3.392,2.962c0,2.106-1.915,3.201-4.208,3.201
			c-1.545,0-3.177-0.546-4.18-1.369l0.834-1.225c0.738,0.623,2.192,1.182,3.289,1.182c1.649,0,2.812-0.475,2.812-1.743
			c0-1.031-0.729-1.439-2.416-1.631l-1.181-0.141c-1.814-0.205-3.005-1.074-3.005-2.837c0-2.022,1.802-3.153,4.029-3.153
			c1.616,0,2.839,0.478,3.819,1.161L7.498,7.361z"/>
		<path fill="#FFFFFF" d="M11.422,7.001c0.841-1.186,2.179-1.629,3.419-1.629c2.524,0,4.262,1.618,4.262,4.089v6.333h-1.607V9.989
			c0-1.941-1.078-3.085-2.946-3.085c-1.715,0-3.127,1.188-3.127,3.129v5.761H9.804V0.259h1.618V7.001z"/>
		<path fill="#FFFFFF" d="M30.634,15.794h-1.607v-1.521C28.216,15.32,26.976,16,25.293,16c-2.869,0-5.104-2.245-5.104-5.32
			c0-3.064,2.235-5.308,5.104-5.308c1.683,0,2.923,0.69,3.733,1.727V5.578h1.607v10.216H30.634z M21.83,10.68
			c0,2.115,1.488,3.81,3.657,3.81c2.124,0,3.636-1.64,3.636-3.81c0-2.157-1.512-3.796-3.636-3.796
			C23.297,6.883,21.83,8.577,21.83,10.68z"/>
		<path fill="#FFFFFF" d="M39.12,5.718l-0.389,1.585c-0.495-0.269-1.176-0.41-1.77-0.41c-1.597,0-2.739,1.251-2.739,3.182v5.719
			h-1.607V5.578h1.596v1.436c0.703-1.047,1.781-1.641,3.032-1.641C37.976,5.372,38.58,5.469,39.12,5.718z"/>
		<path fill="#FFFFFF" d="M48.437,10.648c0,0.205-0.011,0.42-0.031,0.604h-8.189c0.227,2.199,1.77,3.333,3.614,3.333
			c1.263,0,2.363-0.485,3.236-1.283l0.864,1.101C46.657,15.622,45.232,16,43.733,16c-3.021,0-5.169-2.147-5.169-5.31
			c0-3.127,2.159-5.318,5.072-5.318C46.409,5.372,48.415,7.54,48.437,10.648z M40.237,9.947h6.56c-0.205-1.91-1.456-3.14-3.193-3.14
			C41.717,6.808,40.497,8.103,40.237,9.947z"/>
		<path fill="#FFFFFF" d="M60.085,10.68c0,3.075-2.233,5.32-5.104,5.32c-1.684,0-2.913-0.68-3.722-1.717v1.511h-1.618V0.259h1.618
			v6.83c0.809-1.037,2.038-1.717,3.722-1.717C57.852,5.372,60.085,7.616,60.085,10.68z M51.151,10.68c0,2.17,1.5,3.81,3.637,3.81
			c2.188,0,3.646-1.694,3.646-3.81c0-2.103-1.478-3.796-3.646-3.796C52.651,6.883,51.151,8.522,51.151,10.68z"/>
		<path fill="#FFFFFF" d="M62.908,15.794H61.29V5.578h1.618V15.794z"/>
		<path fill="#FFFFFF" d="M71.823,7.034h-4.412v5.156c0,1.598,0.84,2.299,2.028,2.299c0.786,0,1.553-0.292,2.146-0.723l0.756,1.218
			C71.575,15.567,70.562,16,69.309,16c-2.199,0-3.505-1.209-3.505-3.777V7.034H63.57V5.578h2.234V2.329h1.607v3.249h4.412
			C71.823,5.578,71.823,7.034,71.823,7.034z"/>
		<path fill="#FFFFFF" d="M81.928,10.648c0,0.205-0.011,0.42-0.032,0.604h-8.188c0.227,2.199,1.769,3.333,3.613,3.333
			c1.264,0,2.363-0.485,3.236-1.283l0.864,1.101C80.147,15.622,78.723,16,77.224,16c-3.021,0-5.169-2.147-5.169-5.31
			c0-3.127,2.16-5.318,5.072-5.318C79.899,5.372,81.906,7.54,81.928,10.648z M73.728,9.947h6.561c-0.205-1.91-1.456-3.14-3.194-3.14
			C75.207,6.808,73.987,8.103,73.728,9.947z"/>
	</g>
	<path fill="#FFFFFF" d="M63.743,1.875c0,1.036-0.842,1.935-1.876,1.875c-1.621-0.093-1.815-1.403-1.815-1.403
		s0.289,0.217,0.596,0.083c0.183-0.079,0.236-0.17,0.279-0.268c0.062-0.142,0.04-0.227,0.04-0.227s0.427,0.275,0.742-0.085
		c0.315-0.36-0.05-0.735-0.05-0.735s0.175-0.005,0.349-0.207c0.4-0.466-0.214-0.906-0.214-0.906S61.843,0,61.867,0
		C62.903,0,63.743,0.84,63.743,1.875z"/>
</g>
</svg>
